/* XPM */
static char *b535b44bba794ab6ccbbf265a1be3adcox7k4lLQx5GRNYWc[] = {
/* columns rows colors chars-per-pixel */
"64 64 126 2 ",
"   c #010100",
".  c #0A0A00",
"X  c #121200",
"o  c #1B1B00",
"O  c #1C1C0A",
"+  c #151513",
"@  c #252500",
"#  c #2C2C00",
"$  c #343400",
"%  c #3D3D00",
"&  c #2F2F12",
"*  c #3F3F14",
"=  c #3A3A1B",
"-  c #2E2E2C",
";  c #323222",
":  c #393920",
">  c #33332B",
",  c #3D3D2B",
"<  c #363635",
"1  c #3A3A31",
"2  c #434300",
"3  c #4B4B00",
"4  c #545400",
"5  c #5D5D00",
"6  c #464616",
"7  c #484814",
"8  c #434318",
"9  c #4D4D1C",
"0  c #666600",
"q  c #6E6E00",
"w  c #777700",
"e  c #797900",
"r  c #79791A",
"t  c #444424",
"y  c #44442B",
"u  c #4F4F2C",
"i  c #555525",
"p  c #5A5A20",
"a  c #55552C",
"s  c #4C4C34",
"d  c #4A4A3E",
"f  c #575730",
"g  c #57573F",
"h  c #5B5B3C",
"j  c #6D6D3A",
"k  c #757532",
"l  c #454543",
"z  c #4C4C43",
"x  c #4D4D4C",
"c  c #5B5B45",
"v  c #53534E",
"b  c #5D5D4C",
"n  c #535351",
"m  c #5E5E51",
"M  c #636344",
"N  c #64644B",
"B  c #6E6E55",
"V  c #64645C",
"C  c #77775C",
"Z  c #676766",
"A  c #696964",
"S  c #6D6D6C",
"D  c #727264",
"F  c #70706D",
"G  c #757575",
"H  c #7B7B74",
"J  c #7C7C7C",
"K  c #808000",
"L  c #8A8A00",
"P  c #929200",
"I  c #9B9B00",
"U  c #A4A400",
"Y  c #ADAD00",
"T  c #AAAA08",
"R  c #B5B500",
"E  c #BDBD00",
"W  c #8A8A28",
"Q  c #8A8A38",
"!  c #BDBD2B",
"~  c #C5C500",
"^  c #CDCD00",
"/  c #C8C808",
"(  c #D4D400",
")  c #DCDC00",
"_  c #D6D610",
"`  c #E2E200",
"'  c #EBEB00",
"]  c #F4F400",
"[  c #FFFF00",
"{  c #F7F708",
"}  c #E8E817",
"|  c #E1E11E",
" . c #D4D42B",
".. c #C7C738",
"X. c #8E8E4B",
"o. c #9C9C47",
"O. c #8D8D5C",
"+. c #A7A757",
"@. c #868660",
"#. c #87876E",
"$. c #989867",
"%. c #818175",
"&. c #82827D",
"*. c #888878",
"=. c #808080",
"-. c #8B8B8B",
";. c #929292",
":. c #9A9A9A",
">. c #A0A0A0",
",. c #ABABAB",
"<. c #B0B0B0",
"1. c #BBBBBB",
"2. c #C2C2C2",
"3. c #CFCFCF",
"4. c LightGray",
"5. c #D7D7D7",
"6. c gray86",
"7. c #DFDFDF",
"8. c gray89",
"9. c #E7E7E7",
"0. c gray92",
"q. c #EFEFEF",
"w. c #F3F3F3",
"e. c gray97",
"r. c #FBFBFB",
"t. c white",
/* pixels */
"[ [ [ [ [ [ [ [ [ [ [ [ [ [ [ [ [ [ [ [ [ [ [ ] ] ] ` ` ) ( ^ ~ E R Y U I P L e w q 0 5 4 3 2 % # # @ o X X . .                 ",
"[ [ [ [ [ [ [ [ [ [ [ [ [ [ [ [ [ [ [ [ [ [ [ ] ] ' ' ` ) ( ^ ~ E R Y U I P L K w q 0 5 4 3 2 % $ # @ o o X X .                 ",
"[ [ [ [ [ [ [ [ [ [ [ [ [ [ [ [ [ [ [ [ [ [ [ [ ] ' ' ` ) ( ^ ~ E R Y U I P L K w q 0 5 4 3 2 % $ # # o o X . .                 ",
"[ [ [ [ [ [ [ [ [ [ [ [ [ [ [ [ [ [ [ [ [ [ [ ] ] ] ` ` ) ( ^ ~ E R Y U I P L K w q 0 5 4 3 2 % $ # @ o X X . . .               ",
"[ [ [ [ [ [ [ [ [ [ [ [ [ [ [ [ [ [ [ [ [ [ [ ] ] ' ' ` ) ( ^ ~ E R Y U I P L K w q 0 5 4 3 2 % $ # @ o o X . .                 ",
"[ [ [ [ [ [ [ [ [ [ [ [ [ [ [ [ [ [ [ [ [ [ [ ] ] ] ' ` ) ( ^ ~ E R Y U I P L K w q 0 5 4 3 2 % $ # @ o o X . . .               ",
"[ [ [ [ [ [ [ [ [ [ [ [ [ [ [ [ [ [ [ [ [ [ [ ] ] ' ' ` ) ( ^ ~ E R Y U I P L K w q 0 5 4 3 2 % $ # @ @ X X . .                 ",
"[ [ [ [ [ [ [ [ [ [ [ [ [ [ [ [ [ [ [ [ [ [ [ [ ] ' ' ` ) ( ^ ~ E R Y U I P L K w q 0 5 4 3 2 % $ # @ o o X . .                 ",
"[ [ [ [ [ [ [ [ [ [ [ [ [ [ [ [ [ [ [ [ [ [ [ ] ] ] ` ` ) ( ^ ~ E R Y U I P L K w q 0 5 4 3 2 % $ # @ o X X . .                 ",
"[ [ [ [ [ [ [ [ [ [ [ [ [ [ [ [ [ [ [ [ [ [ [ ] ] ' ' ` ) ( ^ ~ E R Y U I P L e w q 0 5 4 3 2 % $ # @ @ o X . . .               ",
"[ [ [ [ [ [ [ [ [ [ [ [ [ [ [ [ [ [ [ [ [ [ [ [ ] ' ' ` ) ( ^ ~ E R Y U I P L K w q 0 5 4 3 % % $ # @ o X X . .                 ",
"[ [ [ [ [ [ [ [ [ [ [ [ [ [ [ [ [ [ [ [ [ [ [ ] ] ' ' ` ) ( ^ ~ E R Y U I P L K w w 0 5 4 3 2 % $ # @ o o X . .                 ",
"[ [ [ [ [ [ [ [ [ [ [ [ [ [ [ [ [ [ [ [ [ [ [ ] ] ' ' ` ) ) ^ ~ E R Y U I P L K w q 0 5 4 3 2 % $ # @ @ X X . .                 ",
"[ [ [ [ [ [ [ [ [ [ [ [ [ [ [ [ [ [ [ [ [ [ [ [ ] ] ' ` ) ( ^ ~ E R Y U I P L K w q 0 5 4 3 % % $ # @ o o X X . .               ",
"[ [ [ [ [ [ [ [ [ [ [ [ [ [ [ [ [ [ [ [ [ [ [ ] ] ' ` ` ) ( ^ ~ E R Y U I P L K w q 0 5 4 3 2 % $ # @ o X X . .                 ",
"[ [ [ [ [ [ [ [ [ [ [ [ [ [ [ [ [ [ [ [ [ [ [ [ ] ' ' ` ) ( ^ ~ E R Y U I P L e w q 0 5 4 3 2 % $ # @ @ o X . .                 ",
"[ [ [ [ [ [ [ [ [ [ [ [ [ [ [ [ [ [ [ [ [ [ [ ] ] ' ' ` ) ( ^ ~ E R Y U I P L K w q 0 5 4 3 2 $ $ # @ o o X . .                 ",
"[ [ [ [ [ [ [ [ [ [ [ [ [ [ [ [ [ [ [ [ [ [ [ [ ] ' ' ` ) ( ^ ~ E R Y U I P L K w q 0 5 4 3 2 % $ # @ o X X . .                 ",
"[ [ [ [ [ [ [ [ [ [ [ [ [ [ [ [ [ [ [ [ [ [ [ ] ] ' ' ` ) ( ^ ~ E R Y U I P L e w q 0 5 4 3 2 % $ # @ @ o X . . .               ",
"[ [ [ [ [ [ [ [ [ [ [ [ [ [ [ [ [ [ [ [ [ [ [ [ ] ' ' ` ) ( ^ ~ E R Y U I P L L w q 0 5 4 3 2 % $ # @ o o . . .                 ",
"[ [ [ [ [ [ [ [ [ [ [ [ [ [ [ [ [ [ [ [ [ [ [ ] ] ' ' ` ) ( ^ ~ E R Y U I P L K w w 0 5 4 3 2 % $ # @ @ X X . .                 ",
"[ [ [ [ [ [ [ [ [ { ...................... .[ [ ] ] ` ` ) ( ^ ~ E R Y U I P L e w q 0 5 4 3 2 % $ # @ o o X . . .               ",
"[ [ [ [ [ [ [ [ [ &.=.=.=.=.J =.=.=.=.=.=.=.+.] ] ' ' ` ) ( ^ ~ E R Y U I P L K w q 0 5 4 3 2 N H J G : X X . .                 ",
"[ [ [ [ [ [ [ [ | =.1.7.7.7.7.8.7.7.7.7.7.:.*.] ] ' ' ` ) ( ^ ~ E R Y U I P L K w 0 0 5 4 3 i =.:.>.-.J o X . .                 ",
"[ [ [ [ [ [ [ [ | =.3.t.t.t.t.t.t.t.t.t.t.>.%.^ ] ' ' ` ) ( ^ ~ E R Y U I P L K w q 0 5 4 3 M =.q.t.<.=.o X . .                 ",
"[ [ [ [ [ [ [ [ | =.3.t.6.>.>.:.>.>.>.:.:.-.A % P ] ' _ ! ! / ~ E R Y U I P L K r k 0 5 4 3 M =.q.t.<.G . . . . .               ",
"[ [ [ [ [ [ [ [ | =.3.t.3.=.F S F F F F S A 6 a C *.=.=.&.=.J &.o.R Y U I Q %.=.J =.=.J H B &.J q.t.<.=.=.=.=.n                 ",
"[ [ [ [ [ [ [ [ | =.3.t.4.=.6 2 2 % % 2 2 % 9 =.:.<.2.7.8.2.1.-.=.#.T U @.=.-.1.5.8.2.1.-.=.:.2.e.t.4.2.2.2.;.=.                ",
"[ [ [ [ [ [ [ [ | =.3.t.3.=.V b m m m m b 6 f =.q.t.t.t.t.t.t.r.,.=.O.X.=.1.r.t.t.t.t.t.t.-.<.t.t.t.t.t.t.t.<.=.                ",
"[ [ [ [ [ [ [ [ | =.3.t.3.=.=.=.=.=.=.&.=.J j =.q.5.1.>.>.,.7.t.r.-.J =.,.t.t.3.>.>.<.5.t.;.-.>.w.t.2.>.>.>.-.G                 ",
"[ [ [ [ [ [ [ [ | =.3.t.t.t.t.t.t.t.t.t.3.=.$.=.=.=.=.G =.=.=.q.t.,.J =.3.t.6.J G S J J >.-.J =.q.t.<.J Z S S <                 ",
"[ [ [ [ [ [ [ [ | =.3.t.t.t.t.t.t.t.t.t.3.=.Z >.>.J G J =.=.=.5.t.2.J J 4.t.7.J A z ; z G J n =.q.t.<.G . .                     ",
"[ [ [ [ [ [ [ [ | =.3.t.3.=.=.=.=.=.=.=.=.J l G -.J :.2.7.7.q.t.t.1.=.J <.t.r.2.-.=.=.J v o > =.q.t.<.G .                       ",
"[ [ [ [ [ [ [ [ | =.3.t.3.=.V m m m m N m g x =.;.w.t.t.t.t.e.w.t.2.=.A -.q.t.t.t.q.5.,.=.G 1 =.q.t.<.G   .   .                 ",
"[ [ [ [ [ [ [ [ | =.3.t.3.=.6 2 % 2 % % % * G :.e.t.w.,.;.=.=.3.t.1.=.l J -.2.e.t.t.t.t.6.=.S =.q.t.<.G .   . .                 ",
"[ [ [ [ [ [ [ [ | =.3.t.3.=.7 % % % 2 % % 8 =.2.t.q.=.J S Z =.3.t.2.=.& = G =.=.;.<.8.t.t.:.=.=.q.t.<.J   . . . .               ",
"[ [ [ [ [ [ [ [ | =.3.t.3.=.6 % L L L P P W =.9.t.1.=.s $ 6 =.3.t.2.=.F =.V , n S J =.9.t.2.=.=.0.t.<.G . . . .                 ",
"[ [ [ [ [ [ [ [ | =.3.t.4.J =.=.=.=.=.=.J &.=.8.t.5.=.S A J -.8.t.2.=.=.,.=.J V d V =.4.t.2.=.=.6.t.2.=.x Z =.n .               ",
"[ [ [ [ [ [ [ [ | =.3.t.9.2.1.2.2.1.2.2.2.;.J 2.t.r.<.;.;.<.w.t.t.1.=.=.q.0.,.=.=.=.>.e.t.,.J =.2.t.q.:.=.;.;.=.                ",
"[ [ [ [ [ [ [ [ | =.3.t.t.t.t.t.t.t.t.t.t.>.=.-.w.t.t.t.t.t.0.8.t.2.=.=.q.t.t.t.t.t.t.t.3.J n Z -.r.t.t.t.t.<.=.                ",
"[ [ [ [ [ [ [ [ } =.1.7.7.7.7.7.7.7.7.7.7.;.G J -.4.w.t.w.1.=.1.7.<.=.J =.<.7.9.t.0.6.>.=.F X ; J -.4.0.w.8.:.J                 ",
"[ [ [ [ [ [ [ [ [ *.=.=.=.=.=.=.=.=.=.=.=.=.h 7 D =.=.=.=.=.J =.=.=.V = Z =.=.=.=.J =.=.v O X . > J =.J =.=.=.n                 ",
"[ [ [ [ [ [ [ [ [ [ ! u u u u a u u u a u 6 % % 3 p h c c y : y t = # # @ @ , d n x , O o X X X o X - l x - +                   ",
"[ [ [ [ [ [ [ [ [ [ ' % % 2 % % % 2 % % % % 2 % 5 w 3 % $ $ $ $ # # # # @ @ @ @ o o o o X X . X $ @ . . .                       ",
"[ [ [ [ [ [ [ [ [ [ [ 0 % % % % % % 2 % 2 % % % I ) L 5 % $ $ $ $ # # # 4 e 2 @ o o o X o X @ $ $ # o . .                       ",
"[ [ [ [ [ [ [ [ [ [ [ [ ( ~ ~ ~ ~ ~ ~ ~ ~ ~ ~ ` ] ] ' ~ U L L L L L P P I P L e 5 3 $ % % 3 2 % $ # @ o X . . .                 ",
"[ [ [ [ [ [ [ [ [ [ [ [ [ [ [ [ [ [ [ [ [ [ [ ] ] ' ' ` ) ( ^ ~ ~ R Y U I P L K w q 0 5 4 3 2 % $ # @ @ o X . . .               ",
"[ [ [ [ [ [ [ [ [ [ [ [ [ [ [ [ [ [ [ [ [ [ [ ] ] ' ' ` ) ( ^ ~ E R Y U I P L K w q 0 5 4 3 2 % $ # @ o X X . .                 ",
"[ [ [ [ [ [ [ [ [ [ [ [ [ [ [ [ [ [ [ [ [ [ [ ] ] ' ' ` ) ( ^ ~ E R Y U I P L K w q 0 5 4 3 2 % $ # @ o X X . . .               ",
"[ [ [ [ [ [ [ [ [ [ [ [ [ [ [ [ [ [ [ [ [ [ [ ] ] ' ' ` ) ( ^ ~ E R Y U I P L K w q 0 5 4 3 2 $ $ # @ @ o X . .                 ",
"[ [ [ [ [ [ [ [ [ [ [ [ [ [ [ [ [ [ [ [ [ [ [ [ ] ] ` ` ) ( ^ ~ E R Y U I P L e w q 0 5 4 3 2 % $ # @ o o X . .                 ",
"[ [ [ [ [ [ [ [ [ [ [ [ [ [ [ [ [ [ [ [ [ [ [ ] ] ' ' ` ) ( ^ ~ ~ R Y U I P L K w q 0 5 4 3 2 % $ # # o X X . . .               ",
"[ [ [ [ [ [ [ [ [ [ [ [ [ [ [ [ [ [ [ [ [ [ [ ] ] ' ' ` ) ( ^ ~ E R Y U I P L K w q 0 5 4 3 2 % $ # @ o o X . .                 ",
"[ [ [ [ [ [ [ [ [ [ [ [ [ [ [ [ [ [ [ [ [ [ [ ] ] ' ` ` ) ( ^ ~ E R Y U I P L K w q 0 5 4 3 2 % $ # @ o o X . . .               ",
"[ [ [ [ [ [ [ [ [ [ [ [ [ [ [ [ [ [ [ [ [ [ [ ] ] ' ' ` ) ( ^ ~ E R Y U I P L K w q 0 5 4 3 2 $ $ # @ @ X X . .                 ",
"[ [ [ [ [ [ [ [ [ [ [ [ [ [ [ [ [ [ [ [ [ [ [ [ ] ] ' ` ) ( ^ ~ E R Y U I P L e w q 0 5 4 3 2 % $ # @ o o X . .                 ",
"[ [ [ [ [ [ [ [ [ [ [ [ [ [ [ [ [ [ [ [ [ [ [ ] ] ' ' ` ) ( ^ ~ E R Y U I P L K w q 0 5 4 3 2 % $ # @ o X X . .                 ",
"[ [ [ [ [ [ [ [ [ [ [ [ [ [ [ [ [ [ [ [ [ [ [ ] ] ] ` ` ) ( ^ ~ E R Y U I P L K w q 0 5 4 3 2 % $ # @ @ o X . . .               ",
"[ [ [ [ [ [ [ [ [ [ [ [ [ [ [ [ [ [ [ [ [ [ [ [ ] ' ' ` ) ( ^ ~ E R Y U I P L e w q 0 5 4 3 2 % $ # @ o X X . .                 ",
"[ [ [ [ [ [ [ [ [ [ [ [ [ [ [ [ [ [ [ [ [ [ [ ] ] ] ' ` ) ( ^ ~ E R Y U I P L K w q 0 5 4 3 2 % $ # @ o o X . .                 ",
"[ [ [ [ [ [ [ [ [ [ [ [ [ [ [ [ [ [ [ [ [ [ [ [ ] ' ' ` ) ( ^ ~ E R Y U I P L K w w 0 5 4 3 2 % $ # # o X X . .                 ",
"[ [ [ [ [ [ [ [ [ [ [ [ [ [ [ [ [ [ [ [ [ [ [ ] ] ' ' ` ) ( ^ ~ E R Y U I P L K w q 0 5 4 3 2 % $ # @ o o X X . .               ",
"[ [ [ [ [ [ [ [ [ [ [ [ [ [ [ [ [ [ [ [ [ [ [ ] ] ' ' ` ) ( ^ ~ E R Y U I P L K w q 0 5 4 3 2 % $ # # o X X . .                 ",
"[ [ [ [ [ [ [ [ [ [ [ [ [ [ [ [ [ [ [ [ [ [ [ [ ] ' ' ` ) ( ^ ~ E R Y U I P L K w q 0 5 4 3 2 % $ # @ o o X . .                 "
};
