/* XPM */
static char *_b897a88655740b5c9dfe82ecac5ab38vqqKAwLpeAGdbOnf[] = {
/* columns rows colors chars-per-pixel */
"64 64 159 2 ",
"   c #000000",
".  c #0A0401",
"X  c #0C0C0C",
"o  c #120702",
"O  c #150904",
"+  c #1B0B03",
"@  c #17110D",
"#  c #101010",
"$  c #1E1A19",
"%  c #250F05",
"&  c #261005",
"*  c #2C1206",
"=  c #22120B",
"-  c #341507",
";  c #3B1807",
":  c #3F1E0F",
">  c #241F1E",
",  c #3D271D",
"<  c #252221",
"1  c #2B2523",
"2  c #312722",
"3  c #3C2B24",
"4  c #363331",
"5  c #3D3532",
"6  c #431B08",
"7  c #4B1F09",
"8  c #54220B",
"9  c #5D260C",
"0  c #482717",
"q  c #562A15",
"w  c #662A0D",
"e  c #6E2D0E",
"r  c #732F0E",
"t  c #77310F",
"y  c #79310F",
"u  c #653017",
"i  c #62311A",
"p  c #6C3318",
"a  c #7F3410",
"s  c #73381C",
"d  c #7E3B1B",
"f  c #55382A",
"g  c #5B3A2A",
"h  c #4B3D37",
"j  c #563D31",
"k  c #603A28",
"l  c #6C3F2A",
"z  c #524038",
"x  c #59453C",
"c  c #7E4225",
"v  c #73422A",
"b  c #7F472C",
"n  c #6D4938",
"m  c #7A4A33",
"M  c #7C4F39",
"N  c #7F513B",
"B  c gray25",
"V  c #524742",
"C  c #555352",
"Z  c #5D5652",
"A  c #665248",
"S  c #7F5541",
"D  c #7B5847",
"F  c #7C5E4F",
"G  c #665953",
"H  c #6D5C53",
"J  c #7F6356",
"K  c #716058",
"L  c #7F685D",
"P  c #616060",
"I  c #6A6461",
"U  c #6E6D6C",
"Y  c #716966",
"T  c #7E6C64",
"R  c #7D726C",
"E  c #757372",
"W  c #7A7573",
"Q  c #7E7875",
"!  c #7D7B7B",
"~  c #803410",
"^  c #893811",
"/  c #803C1D",
"(  c #923C12",
")  c #9B3F13",
"_  c #9F4114",
"`  c #A44315",
"'  c #AD4716",
"]  c #B54A17",
"[  c #BD4D18",
"{  c #8C4C2D",
"}  c #9B4921",
"|  c #9C5330",
" . c #91573C",
".. c #A35530",
"X. c #B15D36",
"o. c #AE613C",
"O. c #B36139",
"+. c #C14F18",
"@. c #C55019",
"#. c #CD541A",
"$. c #D5571B",
"%. c #DC5A1C",
"&. c #E25C1C",
"*. c #E85F1D",
"=. c #EE611E",
"-. c #F4641F",
";. c #F8651F",
":. c #C85720",
">. c #C85924",
",. c #DE6226",
"<. c #D76F3E",
"1. c #DE6E39",
"2. c #EF6B2C",
"3. c #FD6720",
"4. c #F76926",
"5. c #FF6820",
"6. c #F36A29",
"7. c #E36D35",
"8. c #8C5D46",
"9. c #85614F",
"0. c #89604C",
"q. c #9C6144",
"w. c #80685D",
"e. c #8D6B5B",
"r. c #9B6C56",
"t. c #9B715D",
"y. c #AB6240",
"u. c #B96841",
"i. c #BD7452",
"p. c #B0775C",
"a. c #806D64",
"s. c #8B7266",
"d. c #82736B",
"f. c #9B7664",
"g. c #90796D",
"h. c #997B6D",
"j. c #827772",
"k. c #807976",
"l. c #8C7D76",
"z. c #817E7C",
"x. c #A87962",
"c. c #A07A68",
"v. c #C7724A",
"b. c #808080",
"n. c #8A8A8A",
"m. c #909090",
"M. c #999999",
"N. c #A0A0A0",
"B. c #A9A9A9",
"V. c #B1B1B1",
"C. c #BBBBBB",
"Z. c #C3C3C3",
"A. c #CECECE",
"S. c #D5D5D5",
"D. c #DFDFDF",
"F. c #E7E7E7",
"G. c #EEEEEE",
"H. c #F5F5F5",
"J. c #FFFFFF",
/* pixels */
"5.5.5.5.5.5.5.5.5.5.5.5.5.5.5.5.5.5.5.5.5.5.5.;.-.=.=.&.%.$.#.@.[ ] ' ` _ _ y y t e w 9 8 7 6 ; - * & + + o . .                 ",
"5.5.5.5.5.5.5.5.5.5.5.5.5.5.5.5.5.5.5.5.5.5.;.;.-.=.=.&.%.#.#.@.[ ] ' ` _ _ ^ a t e w 9 8 7 6 ; - * & + O o . . .               ",
"5.5.5.5.5.5.5.5.5.5.5.5.5.5.5.5.5.5.5.5.5.5.5.;.=.=.=.%.%.$.#.@.[ ] ' ` _ _ ^ a t e w 9 8 7 : ; - * & + + o . .                 ",
"5.5.5.5.5.5.5.5.5.5.5.5.5.5.5.5.5.5.5.5.5.5.5.;.-.=.=.%.%.$.#.@.[ ] ' ` ^ _ ^ a t e w 9 8 8 6 ; - * & + O o . .                 ",
"5.5.5.5.5.5.5.5.5.5.5.5.5.5.5.5.5.5.5.5.5.5.5.;.-.=.=.%.%.#.#.@.[ ] ' ` _ _ y y t e w 9 8 7 6 ; - * & + O o . .                 ",
"5.5.5.5.5.5.5.5.5.5.5.5.5.5.5.5.5.5.5.5.5.5.;.;.-.=.=.&.%.$.#.@.[ ] ' ` _ ^ _ y t e w 9 8 7 6 ; - * & & + o . .                 ",
"5.5.5.5.5.5.5.5.5.5.5.5.5.5.5.5.5.5.5.5.5.5.;.;.-.=.=.&.%.$.#.@.[ ] ' ` _ _ a y t e w 9 8 7 6 ; - * & + O o . .                 ",
"5.5.5.5.5.5.5.5.5.5.5.5.;.5.5.5.5.5.5.5.5.5.5.;.-.=.=.%.%.$.#.@.[ ] ` _ ^ _ ^ a t e w 9 8 8 6 ; - * & + + o . .                 ",
"5.5.5.5.5.5.5.5.5.5.5.5.5.5.5.5.5.5.5.5.5.5.;.;.=.=.=.=.%.$.#.@.[ ] ' ` ^ _ a a t e w 9 8 7 6 ; - * % + + o o   .               ",
"5.5.5.;.5.5.5.5.5.5.5.5.5.5.5.5.5.5.5.5.5.5.5.;.-.=.&.%.%.$.#.@.[ ] ' ` _ _ ~ a t e w 9 8 7 6 ; - * % % + o . .                 ",
"5.5.5.5.5.5.5.5.5.5.5.5.5.5.5.5.5.5.5.5.5.5.;.;.-.=.=.$.%.$.#.@.[ ] ' ` _ ^ ^ ~ t e w 9 8 7 6 ; - * % + O o o .                 ",
"5.5.5.5.5.5.5.5.5.5.5.5.5.5.5.5.5.5.5.5.5.5.5.;.-.=.=.=.%.$.#.@.[ ] ' ` _ _ ^ ~ t e w 9 8 7 6 ; - * % + + o .                   ",
"5.5.5.5.5.5.5.5.5.5.5.5.5.5.5.5.5.5.5.5.5.5.;.;.-.=.=.%.%.$.#.@.[ ] ' ` _ _ ^ a t e w 9 8 7 6 ; - * % + + o . .                 ",
"5.5.5.5.5.5.5.5.5.5.5.5.5.5.5.5.5.5.5.5.5.5.;.;.-.=.&.=.%.$.#.@.[ ] ' ` _ ^ ^ a t e w 9 8 7 6 ; - * % % O o . .                 ",
"5.5.5.5.5.5.5.5.5.5.5.5.5.5.5.5.5.5.5.5.5.5.;.;.=.=.=.%.%.$.#.@.[ ] ' ` _ _ y a t e w 9 8 7 6 ; - * % + + o . .                 ",
"5.5.5.5.5.5.5.5.5.5.5.5.5.5.5.5.5.5.5.5.5.5.;.;.-.=.=.%.%.$.#.@.[ ] ' ` _ ^ ~ a t r w 9 8 7 6 ; - * % + + o o .                 ",
"5.5.5.5.5.5.5.5.5.5.5.5.5.5.5.5.5.5.5.5.5.5.;.;.-.=.&.&.%.$.#.@.[ ] ' ` _ ( ^ ~ t e w 9 8 7 6 ; - * % % O o . .                 ",
"5.5.5.5.5.5.5.5.5.5.5.5.5.5.5.5.5.5.5.5.5.5.5.;.-.=.=.%.%.$.#.@.[ ] ' ` ) ( ^ ~ t e w 9 8 7 6 ; - * % + + o . .                 ",
"5.5.5.5.5.5.5.5.5.5.5.5.5.5.5.5.5.5.5.5.5.5.5.;.-.=.=.&.%.$.#.@.[ ] ' ` ) ( ^ ~ t e w 9 8 7 6 ; - * % + O o .                   ",
"5.5.5.5.5.5.5.5.5.5.5.5.5.5.5.5.5.5.5.5.5.5.5.;.-.=.&.&.%.$.#.@.[ ] ' ` _ ^ ^ ~ t e w 9 8 7 6 ; - * % % + o o .                 ",
"5.5.5.5.5.5.5.5.5.5.5.5.5.5.;.;.5.5.5.5.5.5.;.;.-.=.&.&.%.$.#.@.[ ] ' ` ) ( ^ ~ t e w 9 8 7 6 ; - * % + + o . .                 ",
"5.5.5.5.5.5.5.5.5.5.5.5.5.;.;.;.5.5.5.5.5.5.5.5.-.=.=.%.%.$.#.@.[ ] ' ` ) ( ^ ~ t e w 9 8 7 6 6 z V V 5 + o . .                 ",
"5.5.5.5.2.x.c.c.c.p.4.5.5.5.v.h.c.x.7.5.5.5.;.;.-.=.=.&.%.$.#.@.[ ] ' ` ) ( ^ ~ t v v k 8 7 6 x b.b.b.b.2 o . .                 ",
"5.5.5.5.v.b.N.N.N.b.v.5.5.6.! M.N.n.x.5.5.5.5.;.=.=.=.&.%.$.#.@.[ ] ' ` ) ( ^ a R b.b.b.K 7 6 G n.J.H.! 5 o . .                 ",
"5.5.5.5.p.m.J.J.J.B.l.4.5.7.b.D.J.N.h.;.5.5.5.;.-.=.=.%.%.$.#.@.[ ] ' ` _ ( ^ / b.C.F.B.R 7 6 G m.J.G.b.5 . . . .               ",
"5.5.5.5.p.n.J.J.J.F.b.q.;.7.b.F.J.N.s.' &.5.5.4.-.,.=.&.%.$.#.@.[ ] ' ' _ ^ ^ / b.A.J.B.E 6 6 G m.J.G.b.4 . $                   ",
"5.5.5.5.p.m.J.G.F.J.B.k.[ v.b.D.J.N.w.y ` 5.i.h.b.b.z.f.u.$.#.@.r.s.s.e. .0.a.d.b.S.J.V.! I I ! m.J.G.b.U ! ! b.P <             ",
"5.5.5.5.p.m.J.G.B.J.F.b.9.1.b.D.J.N.a.~ } h.z.B.Z.S.C.M.z.f.:.X.b.M.N.b.b.b.N.m.N.S.J.Z.N.N.N.b.m.J.G.z.m.C.S.Z.m.b.4           ",
"5.5.5.5.x.m.J.G.b.F.J.B.z.o.b.D.J.N.T a d.n.D.J.J.J.J.J.Z.b.t.y.! H.J.m.Z.J.J.C.J.J.J.J.J.J.J.m.m.J.G.V.J.J.J.J.H.N.! X         ",
"5.5.5.5.p.m.J.G.b.B.J.F.b.d.b.D.J.N.a.S b.F.J.D.N.m.B.H.J.A.b.r.b.G.J.G.J.J.D.V.N.S.J.Z.N.N.N.b.m.J.J.J.F.V.B.D.J.F.b.B         ",
"5.5.5.5.p.m.J.H.b.b.F.J.B.! b.D.J.N.a.k.B.J.F.b.W T ! m.J.J.n.b.b.G.J.F.M.z.b.b.b.A.J.V.! I I E m.J.J.B.b.! W b.H.J.m.C         ",
"5.5.5.5.p.m.J.G.! b.N.J.F.b.b.D.J.N.k.b.S.J.B.b.s y m z.A.J.V.b.b.G.J.m.! A f j b.A.J.V.E & % Z m.J.G.! C X 1 b.D.J.N.P         ",
"5.5.5.5.p.m.J.H.b.R b.S.J.B.! D.J.N.b.b.G.J.M.T y y r z.Z.J.Z.b.b.G.J.m.H 6 6 0 b.A.J.V.E % % Z m.J.G.b.4 . > b.D.J.N.P         ",
"5.5.5.5.p.n.J.G.b.N Q M.J.H.b.D.J.N.b.b.J.J.m.J y y y j.B.J.S.! b.G.J.m.H 7 6 0 b.A.J.V.E % % Z m.J.G.b.4 . < b.D.J.M.P         ",
"5.5.5.5.p.m.J.G.b.N  .b.S.J.V.F.J.N.b.b.H.J.m.L y y %.l.C.J.A.b.b.G.J.m.H 7 7 i b.A.J.V.E % & G m.J.G.b.4 . < b.D.J.N.P         ",
"5.5.5.5.p.m.J.G.b.N y d.M.J.H.F.J.N.z.b.S.J.B.R y ) ,.b.Z.J.C.b.b.G.J.m.H 7 9 / b.A.J.Z.! & & G m.J.G.b.4 . 1 b.D.J.N.P         ",
"5.5.5.5.p.m.J.G.b.M a O.b.S.J.J.J.N.R b.Z.J.S.b.9.| f.b.H.J.N.b.b.G.J.m.H 6 9 ~ z.Z.J.Z.z.h Z ! m.J.G.! 4 . < b.D.J.N.P         ",
"5.5.5.5.p.m.J.G.b.M a #.g.M.J.J.J.N.a.w.n.H.J.C.b.b.b.S.J.D.b.R b.G.J.m.H 7 9 ~ d.B.J.F.n.b.n.b.m.J.H.! 4 . < b.D.J.N.P         ",
"5.5.5.5.p.m.J.G.b.N a #.<.b.S.J.J.M.a.c b.B.H.J.J.D.J.J.G.m.Q n b.G.J.m.H 7 w y F b.F.J.J.J.J.m.m.J.G.b.4 . < b.D.J.N.P         ",
"5.5.5.5.p.n.D.S.b.m a $.;.g.M.D.F.M.a.~ 8.! m.A.F.J.F.Z.b.Q l n ! S.D.n.H 7 9 ~ d Q n.A.D.D.S.n.n.D.S.b.4 . > b.Z.D.M.P         ",
"5.5.5.5.<.b.b.b.k.d ~ $.;.7.b.b.! b.N a _ ..! b.b.b.b.! T p w u Q b.b.b.g 7 9 ~ r s Y b.b.b.b.! ! b.b.! @ .   I b.b.b.4         ",
"5.5.5.5.;.5.| { a a a #.5.;.>.v b d ~ a _ &.y c M D m s e e w w w { k q 7 7 9 ~ y r 6 , 3 3 3 = = 1 1 O . . . . $ < #           ",
"5.5.5.5.5.5.] a ~ a a $.5.;.5._ a a ~ a ` 5.@.y t t t e e e w w ` ( 8 8 7 7 9 a t e w - & % % + + O o . . . . .                 ",
"5.5.5.5.5.;.%.~ a a ^ -.5.5.5.=.~ ~ a a #.;.;.%.~ t t t e w y [ [ ' 9 8 7 7 t ~ t e w 8 - % % + + + O O . . . .                 ",
"5.5.5.5.5.5.5.;.%.=.;.5.5.5.5.5.;.%.%.=.;.5.5.;.-.$.[ ` ] @.#.@.[ ] ' ( ^ ^ ^ ~ t e w 9 8 6 ; - * * % O O o .                   ",
"5.5.5.5.5.5.5.5.5.5.5.;.5.5.5.5.;.5.5.5.;.5.5.;.=.=.=.&.%.$.#.@.[ ] ' ` _ ( ^ a a e w 9 8 7 6 ; - * * + O O . .                 ",
"5.5.5.5.5.5.5.5.5.5.5.5.5.5.5.5.5.5.5.5.5.5.5.;.-.=.=.&.%.$.#.@.[ ] ' ` ) ( ^ ~ t e w 9 8 7 6 ; - * % + + O . .                 ",
"5.5.5.5.5.5.5.5.5.;.5.5.5.5.5.5.5.5.5.5.5.5.3.;.=.=.=.&.%.$.#.@.[ ] ' ` ) ( ^ a t e w 9 8 7 6 ; - * % + O O . . .               ",
"5.5.5.5.5.5.5.5.5.5.5.5.5.5.5.5.5.5.5.5.5.5.3.;.-.=.&.&.%.$.#.@.[ ] ' ` ) ( ^ ~ r e w 9 8 7 6 ; - * * + o o .                   ",
"5.5.5.5.5.5.5.5.5.5.5.5.5.5.5.5.5.5.5.5.;.5.3.;.-.=.=.&.%.$.#.@.[ ] ' ` ) ( ^ ~ a r w 9 8 7 6 ; - * * + + o o . .               ",
"5.5.5.5.5.5.5.5.5.5.5.5.5.5.5.5.5.5.5.5.5.5.5.;.-.=.&.&.%.$.#.@.[ ] ' ` ) ( ^ a r e w 9 8 7 6 ; - * % + O o o                   ",
"5.5.5.5.5.5.5.5.5.5.5.5.5.5.5.5.5.5.5.5.5.5.5.;.-.=.=.&.%.$.#.@.[ ] ' ` ) ( ^ ~ t e w 9 8 7 6 ; - * % + + O . .                 ",
"5.5.5.5.5.5.5.5.5.5.5.5.5.5.5.5.5.5.5.5.5.5.3.;.-.=.=.%.$.$.#.@.[ ] ' ` ) ( ^ ~ t e w 9 8 7 6 ; - * % + + o . .                 ",
"5.5.5.5.5.5.5.5.5.5.5.5.5.5.5.5.5.5.5.5.5.3.3.;.-.=.=.&.%.$.#.@.[ ] ' ` ) ( ^ a t e w 9 8 7 6 ; - * % + + o o                   ",
"5.5.5.5.5.5.5.5.5.5.5.5.5.5.5.5.5.5.5.5.5.5.3.;.-.=.=.&.%.$.#.@.[ ] ' ` ) ( ^ a a e w 9 8 7 6 ; - * * % O o . .                 ",
"5.5.5.5.5.5.5.;.5.5.5.5.5.5.5.5.5.5.5.5.5.5.3.;.-.=.&.&.%.$.#.@.[ ] ' ` ) ( ^ ~ r e w 9 8 7 6 ; - * % + + o . . .               ",
"5.5.5.5.5.5.5.5.5.5.5.5.5.5.5.5.5.5.5.5.5.5.3.;.-.=.*.&.%.$.$.@.[ ] ' ` ) ( ^ ~ t e w 9 8 7 6 ; - * % + + o o                   ",
"5.5.5.5.5.5.5.5.5.5.5.5.5.5.5.5.5.5.5.5.5.5.3.;.-.=.*.&.%.$.#.+.[ ] ' ` ) ( ^ ~ t e w 9 8 7 6 ; - * % % + o . .                 ",
"5.5.5.5.5.5.5.5.5.5.5.5.5.5.5.5.5.5.5.5.5.5.3.;.-.=.*.&.%.$.#.+.[ ] ' ` ) ( ^ ~ t e w 9 8 7 6 ; - * % + O o o .                 ",
"5.5.5.5.5.5.5.5.5.5.5.5.;.5.5.5.5.5.5.5.5.5.3.;.-.=.*.&.%.$.$.@.[ ] ' ` ) ( ^ ~ t e w 9 8 7 6 ; - * % + + o .                   ",
"5.5.5.5.5.5.5.5.5.5.5.5.5.5.5.5.5.5.5.5.3.3.3.;.-.*.*.&.%.$.@.@.[ ] ' ` ) ( ^ ~ t e w 9 8 7 6 ; - * % % + o . .                 ",
"5.5.5.5.5.5.5.5.5.5.5.5.5.5.5.5.5.5.5.5.3.3.3.;.4.*.*.&.%.$.#.+.[ ] ' ` ) ( ^ ~ t e w 9 8 7 6 ; - * % + O o . .                 ",
"5.5.5.5.5.5.5.5.5.5.5.5.5.5.5.5.5.5.3.3.3.3.3.;.;.=.*.&.%.$.$.@.[ ] ' ` ) ( ^ ~ t e w 9 8 7 6 ; - * % + + o . .                 ",
"5.5.5.5.5.5.5.5.5.5.5.5.5.5.5.5.5.5.5.3.3.3.3.;.-.=.*.&.%.$.#.+.[ ] ' ` ) ( ^ ~ a e w 9 8 7 6 ; - * * + + o o .                 "
};
