/* XPM */
static char *bd5717ebd43c46d2a60beaa8255629866cX4LxEjWyJqOhq3[] = {
/* columns rows colors chars-per-pixel */
"64 64 157 2 ",
"   c #000001",
".  c #00000A",
"X  c #0C0C0C",
"o  c #000012",
"O  c #0C0C14",
"+  c #00001B",
"@  c #08081D",
"#  c #14141A",
"$  c gray11",
"%  c #000024",
"&  c #080820",
"*  c #00002C",
"=  c #1A1A24",
"-  c #000034",
";  c #00003B",
":  c #0A0A3B",
">  c #1C1C3D",
",  c #202023",
"<  c #20202C",
"1  c #28282B",
"2  c #202036",
"3  c #2C2C32",
"4  c #20203B",
"5  c #282838",
"6  c #303035",
"7  c #30303A",
"8  c #000043",
"9  c #00004C",
"0  c #181848",
"q  c #000054",
"w  c #080853",
"e  c #00005D",
"r  c #08085C",
"t  c #181856",
"y  c #10105F",
"u  c #1C1C5E",
"i  c #34344E",
"p  c #38384B",
"a  c #202055",
"s  c #383855",
"d  c #3C3C5B",
"f  c #000066",
"g  c #00006E",
"h  c #181868",
"j  c #000076",
"k  c #080875",
"l  c #00007E",
"z  c #0A0A7F",
"x  c #11117D",
"c  c #1A1A7F",
"v  c #202066",
"b  c #282863",
"n  c #20206C",
"m  c #34346C",
"M  c #282873",
"N  c #21217F",
"B  c #2C2C7F",
"V  c #383877",
"C  c #31317D",
"Z  c #39397F",
"A  c gray25",
"S  c #40404F",
"D  c #404052",
"F  c #4C4C50",
"G  c #40405D",
"H  c gray33",
"J  c #50505B",
"K  c #484860",
"L  c #40406D",
"P  c #4C4C6F",
"I  c #505065",
"U  c #54546E",
"Y  c #40407F",
"T  c #545473",
"R  c #50507D",
"E  c #59597B",
"W  c #606061",
"Q  c #606069",
"!  c #6C6C6D",
"~  c #686872",
"^  c #6A6A7E",
"/  c #717175",
"(  c #73737A",
")  c #7B7B7D",
"_  c #000081",
"`  c #00008A",
"'  c #000092",
"]  c #00009B",
"[  c #202085",
"{  c #30308E",
"}  c #343497",
"|  c #3C3C92",
" . c #0000A4",
".. c #0C0CA1",
"X. c #0000AD",
"o. c #1414A1",
"O. c #0000B5",
"+. c #0000BD",
"@. c #2C2CA8",
"#. c #4A4A80",
"$. c #484889",
"%. c #505080",
"&. c #595981",
"*. c #50508E",
"=. c #44449E",
"-. c #5C5C98",
";. c #616182",
":. c #6A6A80",
">. c #727280",
",. c #7A7A83",
"<. c #72728C",
"1. c #787888",
"2. c #616193",
"3. c #6B6B93",
"4. c #62629B",
"5. c #707090",
"6. c #4444A5",
"7. c #5858A6",
"8. c #5050AC",
"9. c #5858A8",
"0. c #4040BF",
"q. c #6060A0",
"w. c #0000C5",
"e. c #0000CD",
"r. c #1818CF",
"t. c #0000D4",
"y. c #0000DC",
"u. c #2424C5",
"i. c #2828C8",
"p. c #3939C5",
"a. c #3030CF",
"s. c #0000E2",
"d. c #0000EB",
"f. c #1010E0",
"g. c #1A1AE5",
"h. c #1212ED",
"j. c #0000F4",
"k. c #0C0CF3",
"l. c #0000FF",
"z. c #808080",
"x. c #8A8A8A",
"c. c #909090",
"v. c #9A9A9A",
"b. c #A1A1A1",
"n. c #AAAAAA",
"m. c #B2B2B2",
"M. c #BABABA",
"N. c gray76",
"B. c #CECECE",
"V. c #D4D4D4",
"C. c #DEDEDE",
"Z. c gray90",
"A. c #EEEEEE",
"S. c #F3F3F3",
"D. c gray97",
"F. c #FBFBFB",
"G. c white",
/* pixels */
"l.l.l.l.l.l.l.l.l.l.l.l.l.l.l.l.l.l.l.l.l.l.l.j.j.d.d.s.y.t.e.w.+.O.X. .] ' ` l j g f e q 9 8 ; - * % + + o . .                 ",
"l.l.l.l.l.l.l.l.l.l.l.l.l.l.l.l.l.l.l.l.l.l.l.j.j.j.d.s.y.t.e.w.+.O.X. .] ' ` _ j g f e q 9 8 ; - * * + + o . .                 ",
"l.l.l.l.l.l.l.l.l.l.l.l.l.l.l.l.l.l.l.l.l.l.l.j.j.d.s.s.y.t.e.w.+.O.X. .] ' ` _ j g f e q 9 8 ; ; * % + o o . .                 ",
"l.l.l.l.l.l.l.l.l.l.l.l.l.l.l.l.l.l.l.l.l.l.l.j.j.d.d.s.y.t.e.w.+.O.X. .] ' ` _ j j f e q 9 8 ; - * % + + o . .                 ",
"l.l.l.l.l.l.l.l.l.l.l.l.l.l.l.l.l.l.l.l.l.l.l.j.j.j.d.s.y.t.e.w.+.O.X. .] ' ` l j g f e q 9 8 ; - * % % o o . .                 ",
"l.l.l.l.l.l.l.l.l.l.l.l.l.l.l.l.l.l.l.l.l.l.l.j.j.d.s.s.y.t.e.w.+.O.X. .] ' ` _ j g f e q 9 8 ; - * % + + o . .                 ",
"l.l.l.l.l.l.l.l.l.l.l.l.l.l.l.l.l.l.l.l.l.l.l.j.j.d.d.s.y.t.e.w.+.O.X. .] ' ` l j g f e q 9 8 ; - * % + + o . .                 ",
"l.l.l.l.l.l.l.l.l.l.l.l.l.l.l.l.l.l.l.l.l.l.l.l.j.j.d.s.y.t.e.w.+.O.X. .] ' ` _ j g f f q 9 8 ; - * % + o o . .                 ",
"l.l.l.l.l.l.l.l.l.l.l.l.l.l.l.l.l.l.l.l.l.l.l.j.j.j.s.s.y.t.e.w.+.O.X. .] ' ` l j g f e q 9 8 ; ; * % + + o .                   ",
"l.l.l.l.l.l.l.l.l.l.l.l.l.l.l.l.l.l.l.l.l.l.l.j.j.d.d.s.y.t.e.w.+.O.X. .] ' ` l j j f e q 9 8 ; - * % % o o o . .               ",
"l.l.l.l.l.l.l.l.l.l.l.l.l.l.l.l.l.l.l.l.l.l.l.j.j.d.d.s.y.t.e.w.+.O.X. .] ' ` _ j g f e q 9 8 ; - * % + + o o .                 ",
"l.l.l.l.l.l.l.l.l.l.l.l.l.l.l.l.l.l.l.l.l.l.l.j.j.d.d.s.y.t.e.w.+.O.X. .] ' ` _ j g f e q 9 8 ; - * % + + o .                   ",
"l.l.l.l.l.l.l.l.l.l.l.l.l.l.l.l.l.l.l.l.l.l.l.l.j.d.d.s.y.t.e.w.+.O.X. .] ' ` l j j f e q 9 8 ; - * % + o o . .                 ",
"l.l.l.l.l.l.l.l.l.l.l.l.l.l.l.l.l.l.l.l.l.l.l.j.j.j.s.s.y.t.e.w.+.O.X. .] ' ` _ j g f e q 9 ; ; - * % + + o o .                 ",
"l.l.l.l.l.l.l.l.l.l.l.l.l.l.l.l.l.l.l.l.l.l.l.j.j.d.d.s.y.t.e.w.+.O.X. .] ' ` _ j j f e q 9 8 ; - * % + o o . .                 ",
"l.l.l.l.l.l.l.l.l.l.l.l.l.l.l.l.l.l.l.l.l.l.l.j.j.d.d.s.y.t.e.w.+.O.X. .] ` ` _ j g f e q 9 8 ; - * % % + o o .                 ",
"l.l.l.l.l.l.l.l.l.l.l.l.l.l.l.l.l.l.l.l.l.l.l.j.j.d.d.s.y.t.e.w.+.O.X. .] ' ` _ j g f e q 9 8 ; - * % + o o . .                 ",
"l.l.l.l.l.l.l.l.l.l.l.l.l.l.l.l.l.l.l.l.l.l.l.j.j.d.d.s.y.t.e.w.+.O.X. .] ' ` _ j g f e q 9 8 ; - * % + + o . .                 ",
"l.l.l.l.l.l.l.l.l.l.l.l.l.l.l.l.l.l.l.l.l.l.l.j.j.d.d.s.y.t.e.w.+.O.X. .] ' ` _ j g f e q 9 8 ; - * % % + o .                   ",
"l.l.l.l.l.l.l.l.l.l.l.l.l.l.l.l.l.l.l.l.l.l.l.l.j.d.d.s.y.t.e.w.+.O.X. .] ' ` _ j g f e q 9 8 ; - * % + + o . .                 ",
"l.l.l.l.l.l.l.l.l.l.l.l.l.l.l.l.l.l.l.l.l.l.l.j.j.d.d.s.y.t.e.w.+.O.X. .] ' ` _ j g f e q 9 8 ; - * % + + o . .                 ",
"l.l.l.l.l.l.l.l.l.l.l.l.l.l.l.l.l.l.l.l.l.l.l.j.j.d.s.s.y.t.e.w.+.O.X. .] ' ` l j j f e q 9 8 ; : i D S 5 o . .                 ",
"l.l.l.l.l.l.p.7.,.z.z.<.q.p.k.l.l.l.l.l.l.l.l.j.j.j.s.s.y.t.e.w.+.O.X. .] ' ` _ j g n v u 9 8 ; s z.z.z.z.= . .                 ",
"l.l.l.l.g.3.z.b.M.N.N.N.v.z.z.a.l.l.l.l.l.l.l.l.j.d.d.s.y.t.e.w.+.O.X. .] ' ` _ j ^ z.z.z.U 8 ; K c.G.A.z.7 . .                 ",
"l.l.l.k.<.v.Z.G.G.G.G.G.G.A.c.q.l.l.l.l.l.l.l.j.j.j.d.s.y.t.e.w.+.O.X. .] ' ` _ x ) M.C.b.( 8 ; I c.G.A.z.7 .                   ",
"l.l.l.9.x.A.G.A.B.b.n.N.S.G.b.2.j.l.l.l.l.k.j.j.j.j.s.s.y.t.e.w.+.O.X. .] ' ` _ x z.B.G.m.( ; ; I c.G.A.z.7   # .               ",
"l.l.l.z.M.G.Z.x.z.:.,.z.z.N.v.;.l e.g.9.<.z.z.3.8.f.d.s.u.-.2.2.@.O.X...*.&.;.%.R z.B.G.m.) Q Q ( c.G.A.z.! ) z.z.W ,           ",
"l.l.g.z.C.G.N.z.c _ _ x &.z.z.#._ | ,.c.M.V.N.n.x.1.i.s.3.c.b.x.,.O.X.| x.b.b.z.z.v.C.G.N.b.b.b.z.c.G.A.,.c.M.V.N.c.z.6         ",
"l.l.g.,.C.G.V.z.Y z l l l c C _ Z z.m.G.G.G.G.G.A.v.,.r.<.N.G.N.z.O.X.*.c.G.G.z.z.G.G.G.G.G.G.G.c.c.G.A.M.F.G.G.G.D.b.) X       ",
"l.l.k.z.N.G.D.b.z.,.^ $.[ l z _ ) n.G.F.m.c.v.B.G.F.x.-.<.N.G.N.z.j ` *.x.G.G.z.) b.C.G.N.b.b.b.z.c.G.G.F.C.m.n.C.G.Z.z.A       ",
"l.l.l.9.x.S.G.G.Z.N.b.x.z.4.o.#.z.Z.G.n.z.;.:.z.B.G.N.z.) N.G.N.z.e e *.c.G.G.z.( z.B.G.m.) Q Q / c.G.F.b.z.z./ z.G.G.c.H       ",
"l.l.l.h.,.x.C.G.G.G.G.F.N.x.1.4.v.G.A.) #._ l ^ v.G.F.z.z.N.G.M.z.q e *.x.G.G.z.I z.B.G.n./ % + J c.G.A.z.F . 1 z.Z.G.b.W       ",
"l.l.l.l.g.>.z.c.m.V.D.G.G.A.x.z.n.G.C.z.[ l l Y z.G.G.x.z.M.G.N.z.e q *.c.G.G.z.I z.B.G.n./ % + J c.G.A.z.6   , z.C.G.b.W       ",
"l.l.l.l.l. .C &.z.z.z.M.D.G.M.z.M.G.B.z.x l l { z.S.G.c.z.N.G.N.z.e q *.c.G.G.z.I z.V.G.m./ % + J c.G.A.z.7 . , z.C.G.b.W       ",
"l.l.l.g.a.s._ _ l N #.z.N.G.C.z.m.G.V.z.x l +.p.z.G.G.x.z.N.G.N.z.r q *.x.G.G.z.I z.B.G.m./ % % I c.G.A.z.6 . , z.C.G.b.W       ",
"l.l.g.z.z.5.i.' _ l l ^ n.G.A.z.b.G.Z.z.B _ s.9.x.G.F.z.z.M.G.B.z.y q *.c.G.G.z.I z.B.G.m.~ % + I c.G.A.z.7   , z.Z.G.v.W       ",
"l.l.0.z.Z.c.z.4.6.} #.z.N.G.V.) x.G.G.v.>.{ @.1.M.G.Z.) z.n.G.C.z.T P ,.v.G.G.) G z.B.G.M.z.p J ( c.G.A.z.6 . , ) Z.G.b.W       ",
"l.l.0.z.G.F.N.b.z.z.z.M.G.F.v.,.) M.G.A.x.z.z.b.F.G.v.>.E c.G.F.b.z.x.m.F.G.G.z.G ( m.F.Z.x.) x.z.c.G.A.z.6   , z.C.G.v.W       ",
"l.l.p.z.S.G.G.G.G.G.G.G.F.m.) { &.z.C.F.G.A.A.G.G.N.z.V M z.B.G.G.G.G.G.C.G.G.z.G K x.S.G.G.G.G.c.c.G.A.z.6   , z.C.G.b.W       ",
"l.l.g.,.z.b.V.C.Z.D.C.B.x.z.R l [ ^ z.m.C.D.A.V.b.z.E j f E x.N.A.F.C.n.x.C.C.z.d : ( x.V.C.C.C.x.x.C.V.z.3 . = z.N.C.v.W       ",
"l.l.l.h.=.>.z.z.z.z.z.z.>.[ l _ l ` R z.z.z.z.z.,.C j j f k &.z.) z.z.) ) z.z.) 0 ; t ! z.z.z.z.) ) z.z./ O   X ! z.z.z.6       ",
"l.l.l.l.w.l c [ N #.N x l l _ _ l t.X._ N Y Z N l j j g j  .X.h m L b w w a a 8 ; ; 9 8 > 4 4 2 & @ < < . . . .   $ , #         ",
"l.l.l.l.s.` l l _ l l _ l _ l _ O.l.j.' l _ l j j j j j ` t.e.l e q e q 9 9 8 8 ; ; 9 e * % % + + o o o . .   .                 ",
"l.l.l.l.l.d.+.` l _ l _ _ l ` y.j.l.l.j.O.l _ l j j j O.y.t.e.w.j e q q 9 9 8 ; ; ; e e 9 * % + + o o . . . .                   ",
"l.l.l.l.l.l.l.l.s.s.t.+.y.d.l.l.l.l.l.l.l.j.y.+.+.t.d.s.y.t.e.w.+. .` l _ ` ` g f f f e q 9 ; ; * % % + o o . .                 ",
"l.l.l.l.l.l.l.l.l.l.l.l.l.l.l.l.l.l.l.l.l.l.l.j.j.d.s.s.y.t.e.w.+.O.X. .] ' ` _ j g f e q 9 8 ; ; * % + + o . .                 ",
"l.l.l.l.l.l.l.l.l.l.l.l.l.l.l.l.l.l.l.l.l.l.l.j.j.d.d.s.y.t.e.w.+.O.X. .] ' ` l j g f e q 9 8 ; ; * * + o o . .                 ",
"l.l.l.l.l.l.l.l.l.l.l.l.l.l.l.l.l.l.l.l.l.l.l.j.j.j.s.y.y.t.e.w.+.O.X. .] ' ` ` j g f e q 9 8 ; - * % + + o o .                 ",
"l.l.l.l.l.l.l.l.l.l.l.l.l.l.l.l.l.l.l.l.l.l.l.j.j.d.d.s.y.t.e.w.+.O.X. .] ' ` _ j g f e q 9 8 ; - * % + + o . .                 ",
"l.l.l.l.l.l.l.l.l.l.l.l.l.l.l.l.l.l.l.l.l.l.l.j.j.j.d.s.y.t.e.w.+.O.X. .] ' ` _ j g f e q 9 8 ; - * % + + o . .                 ",
"l.l.l.l.l.l.l.l.l.l.l.l.l.l.l.l.l.l.l.l.l.l.l.j.j.d.s.s.y.t.e.w.+.O.X. .] ' ` l j j f e q 8 8 ; ; * % % o o .                   ",
"l.l.l.l.l.l.l.l.l.l.l.l.l.l.l.l.l.l.l.l.l.l.l.j.j.d.d.s.y.t.e.w.+.O.X. .] ' ` _ j g f e q 9 8 ; - * % + + o o .                 ",
"l.l.l.l.l.l.l.l.l.l.l.l.l.l.l.l.l.l.l.l.l.l.l.j.j.j.d.s.y.t.e.w.+.O.X. .] ' ` _ j g f e q 9 8 ; - * % + + o o .                 ",
"l.l.l.l.l.l.l.l.l.l.l.l.l.l.l.l.l.l.l.l.l.l.l.j.j.d.d.s.y.t.e.w.+.O.X. .] ' ` _ j g f e q 9 8 ; - * * + o o .                   ",
"l.l.l.l.l.l.l.l.l.l.l.l.l.l.l.l.l.l.l.l.l.l.l.j.j.j.d.s.y.t.e.w.+.O.X. .] ' ` _ j g f e q 9 8 ; - * % + + o . .                 ",
"l.l.l.l.l.l.l.l.l.l.l.l.l.l.l.l.l.l.l.l.l.l.l.l.j.d.s.s.y.t.e.w.+.O.X. .] ' ` _ j g f e q 9 8 ; - * % + + o . .                 ",
"l.l.l.l.l.l.l.l.l.l.l.l.l.l.l.l.l.l.l.l.l.l.l.j.j.d.d.s.y.t.e.w.+.O.X. .] ' ` _ j j f e q 9 8 ; ; * % + + o .   .               ",
"l.l.l.l.l.l.l.l.l.l.l.l.l.l.l.l.l.l.l.l.l.l.l.j.j.d.d.s.y.t.e.w.+.O.X. .] ' ` _ j g f e q 9 8 ; - * % % o o o .                 ",
"l.l.l.l.l.l.l.l.l.l.l.l.l.l.l.l.l.l.l.l.l.l.l.j.j.d.d.s.y.t.e.w.+.O.X. .] ' ` l j g f e q 9 8 ; - * % + + o o .                 ",
"l.l.l.l.l.l.l.l.l.l.l.l.l.l.l.l.l.l.l.l.l.l.l.j.j.j.s.s.y.t.e.w.+.O.X. .] ' ` _ j j f e q 9 8 ; - * % + + o .                   ",
"l.l.l.l.l.l.l.l.l.l.l.l.l.l.l.l.l.l.l.l.l.l.l.l.j.d.d.s.y.t.e.w.+.O.X. .] ' ` _ j g f e q 9 8 ; - * % + o o . .                 ",
"l.l.l.l.l.l.l.l.l.l.l.l.l.l.l.l.l.l.l.l.l.l.l.j.j.d.d.s.y.t.e.w.+.O.X. .] ' ` _ j g f e q 9 8 ; - * % + + o o .                 ",
"l.l.l.l.l.l.l.l.l.l.l.l.l.l.l.l.l.l.l.l.l.l.l.j.j.d.d.s.y.t.e.w.+.O.X. .] ' ` _ j j f e q 9 8 ; ; * % + o o . .                 ",
"l.l.l.l.l.l.l.l.l.l.l.l.l.l.l.l.l.l.l.l.l.l.l.j.j.d.d.s.y.t.e.w.+.O.X. .] ' ` l j g f e q 9 ; ; - * % % + o o .                 "
};
