/* XPM */
static char *b1b90b130fa44aba9e77c02b4921279eSniXaa0UqzZa5fgz[] = {
/* columns rows colors chars-per-pixel */
"64 64 160 2 ",
"   c #000000",
".  c #0B0000",
"X  c #0C0C0C",
"o  c #120000",
"O  c #1B0000",
"+  c #130808",
"@  c #1D0808",
"#  c #151010",
"$  c gray11",
"%  c #250000",
"&  c #2C0000",
"*  c #340000",
"=  c #3B0000",
"-  c #271414",
";  c #2D1414",
":  c #3F1414",
">  c #242323",
",  c #2D2020",
"<  c gray16",
"1  c #312424",
"2  c #3B2222",
"3  c #362C2C",
"4  c #313030",
"5  c #393434",
"6  c #430000",
"7  c #4B0000",
"8  c #540000",
"9  c #5D0000",
"0  c #500808",
"q  c #481010",
"w  c #581C1C",
"e  c #660000",
"r  c #6E0000",
"t  c #650C0C",
"y  c #6F0808",
"u  c #760000",
"i  c #7D0000",
"p  c #720C0C",
"a  c #7F0808",
"s  c #7D1313",
"d  c #741818",
"f  c #7C1818",
"g  c #442020",
"h  c #592020",
"j  c #4B3030",
"k  c #573434",
"l  c #523A3A",
"z  c #662020",
"x  c #7F2121",
"c  c #673C3C",
"v  c #7C3838",
"b  c gray25",
"n  c #484848",
"m  c #554141",
"M  c #534848",
"N  c #535252",
"B  c #5A5151",
"V  c #5D5A5A",
"C  c #6C4040",
"Z  c #694C4C",
"A  c #724040",
"S  c #7D4040",
"D  c #714C4C",
"F  c #7C4A4A",
"G  c #6C5050",
"H  c #625A5A",
"J  c #695C5C",
"K  c #7C5454",
"L  c #7D5959",
"P  c #626060",
"I  c #696060",
"U  c #6D6A6A",
"Y  c #746161",
"T  c #796060",
"R  c #746B6B",
"E  c #7D6B6B",
"W  c #737171",
"Q  c #7C7272",
"!  c #7D7979",
"~  c #800000",
"^  c #890000",
"/  c #920000",
"(  c #9B0000",
")  c #900C0C",
"_  c #801010",
"`  c #9B1010",
"'  c #A40000",
"]  c #AD0000",
"[  c #AA0808",
"{  c #B50000",
"}  c #BD0000",
"|  c #BA0808",
" . c #A61414",
".. c #BA1818",
"X. c #872424",
"o. c #823030",
"O. c #8F3030",
"+. c #9C3838",
"@. c #A82020",
"#. c #BD3030",
"$. c #C50000",
"%. c #CD0000",
"&. c #D50000",
"*. c #DC0000",
"=. c #D31414",
"-. c #DA1010",
";. c #DE1C1C",
":. c #E20000",
">. c #EB0000",
",. c #E10808",
"<. c #F40000",
"1. c #FF0000",
"2. c #F70808",
"3. c #EF1010",
"4. c #E61919",
"5. c #C92020",
"6. c #D32121",
"7. c #DF2020",
"8. c #D72828",
"9. c #C73838",
"0. c #804848",
"q. c #805151",
"w. c #895858",
"e. c #A74040",
"r. c #AF4040",
"t. c #A24848",
"y. c #BF4040",
"u. c #B34C4C",
"i. c #B84848",
"p. c #A85858",
"a. c #B05050",
"s. c #806060",
"d. c #8C6060",
"f. c #806868",
"g. c #8D6C6C",
"h. c #986868",
"j. c #807070",
"k. c #8B7272",
"l. c #817B7B",
"z. c #887878",
"x. c #907070",
"c. c #A06060",
"v. c #808080",
"b. c #898989",
"n. c #919191",
"m. c #9B9B9B",
"M. c #A1A1A1",
"N. c #A9A9A9",
"B. c #B0B0B0",
"V. c #BABABA",
"C. c #C3C3C3",
"Z. c #CFCFCF",
"A. c gray84",
"S. c #DFDFDF",
"D. c #E6E6E6",
"F. c #EFEFEF",
"G. c #F4F4F4",
"H. c gray97",
"J. c #FBFBFB",
"K. c #FFFFFF",
/* pixels */
"1.1.1.1.1.1.1.1.1.1.1.1.1.1.1.1.1.1.1.1.1.1.1.<.<.>.>.:.*.&.%.$.} { ] ' ( / ^ i u r e 9 8 7 6 = * & % O O o . .                 ",
"1.1.1.1.1.1.1.1.1.1.1.1.1.1.1.1.1.1.1.1.1.1.1.<.<.>.>.:.*.&.%.$.} { ] ' ( / ^ ~ u r e 9 8 7 6 = * & % O O o . .                 ",
"1.1.1.1.1.1.1.1.1.1.1.1.1.1.1.1.1.1.1.1.1.1.1.1.<.>.>.:.*.&.%.$.} { ] ' ( / ^ ~ u r e 9 8 7 6 = = & % % o o . . .               ",
"1.1.1.1.1.1.1.1.1.1.1.1.1.1.1.1.1.1.1.1.1.1.1.<.<.>.>.:.*.&.%.$.} { ] ' ( / ^ ~ i r e 9 8 7 6 = & & % O O . . .                 ",
"1.1.1.1.1.1.1.1.1.1.1.1.1.1.1.1.1.1.1.1.1.1.1.<.<.>.>.*.*.&.%.$.} { ] ' ( / ^ i u r e 9 8 7 6 = * & % O O o . .                 ",
"1.1.1.1.1.1.1.1.1.1.1.1.1.1.1.1.1.1.1.1.1.1.1.<.<.>.>.:.*.&.%.$.} { ] ' ( / ^ ~ u r e 9 8 7 6 = * & % % o o . . .               ",
"1.1.1.1.1.1.1.1.1.1.1.1.1.1.1.1.1.1.1.1.1.1.1.<.<.>.>.:.*.&.%.$.} { ] ' ( / ^ ~ u r e 9 9 7 6 = * & % O O o . .                 ",
"1.1.1.1.1.1.1.1.1.1.1.1.1.1.1.1.1.1.1.1.1.1.1.1.<.<.>.:.*.&.%.$.} { ] ' ( / ^ ~ u r e 9 8 7 6 = * & % O O o . .                 ",
"1.1.1.1.1.1.1.1.1.1.1.1.1.1.1.1.1.1.1.1.1.1.1.<.<.>.>.:.*.&.%.$.} { ] ' ( / ^ ~ u r e 9 8 7 6 = * & % O O o . . .               ",
"1.1.1.1.1.1.1.1.1.1.1.1.1.1.1.1.1.1.1.1.1.1.1.<.<.>.>.:.*.&.%.$.} { ] ' ( / ^ i u r e 9 8 7 6 = * & % % o . . .                 ",
"1.1.1.1.1.1.1.1.1.1.1.1.1.1.1.1.1.1.1.1.1.1.1.1.<.>.:.:.*.&.%.$.} { ] ' ( / ^ ~ u r e 9 8 7 = = = & % O O o . .                 ",
"1.1.1.1.1.1.1.1.1.1.1.1.1.1.1.1.1.1.1.1.1.1.1.<.<.>.>.>.*.&.%.$.} { ] ' ( / ^ ~ u u e 9 8 7 6 = * & % O O o . . .               ",
"1.1.1.1.1.1.1.1.1.1.1.1.1.1.1.1.1.1.1.1.1.1.1.<.<.>.>.:.*.&.%.$.} { ] ' ( / ^ ~ u r e 9 8 7 6 = * & % O O o . .                 ",
"1.1.1.1.1.1.1.1.1.1.1.1.1.1.1.1.1.1.1.1.1.1.1.<.<.<.>.:.*.&.%.$.} { ] ' ( / ^ ~ u r e 9 8 7 6 = * & % O O o . . .               ",
"1.1.1.1.1.1.1.1.1.1.1.1.1.1.1.1.1.1.1.1.1.1.1.<.<.>.>.*.*.&.%.$.} { ] ' ( / ^ i u r e 9 8 7 6 = * & % O o o . .                 ",
"1.1.1.1.1.1.1.1.1.1.1.1.1.1.1.1.1.1.1.1.1.1.1.1.<.>.>.:.*.&.%.$.} { ] ' ( / ^ i u u e 9 8 7 6 = = & & O O o . .                 ",
"1.1.1.1.1.1.1.1.1.1.1.1.1.1.1.1.1.1.1.1.1.1.1.<.<.>.>.:.*.&.%.$.} { ] ' ( / ^ ~ u r e 9 8 7 6 = & & % O o o . . .               ",
"1.1.1.1.1.1.1.1.1.1.1.1.1.1.1.1.1.1.1.1.1.1.1.1.<.>.>.*.*.&.%.$.} { ] ' ( / ^ ~ u r e 9 8 7 6 = * & & O O o . .                 ",
"1.1.1.1.1.1.1.1.1.1.1.1.1.1.1.1.1.1.1.1.1.1.1.<.<.>.>.:.*.&.%.$.} { ] ' ( / ^ ~ u r e 9 8 7 6 = = & % O o o . .                 ",
"1.1.1.1.1.1.1.1.1.1.1.1.1.1.1.1.1.1.1.1.1.1.1.1.<.>.>.:.*.&.%.$.} { ] ' ( / ^ ~ u r e 9 8 7 6 = * & % O O o . . .               ",
"1.1.1.1.1.1.1.1.1.1.1.1.1.1.1.1.1.1.1.1.1.1.1.<.<.>.>.:.*.&.%.$.} { ] ' ( / ^ ~ i r e 9 8 7 6 = * & % % o o . .                 ",
"1.1.1.1.3.7.4.4.1.1.1.1.1.2.7.7.7.2.1.1.1.1.1.;.6.6.,.:.*.&.%.$.} { ] ' ( / ^ ~ u r e 9 8 7 6 = * & % O O o . . .               ",
"1.1.1.7.l.v.v.v.y.1.1.1.2.k.v.v.v.h.2.1.1.1.u.v.v.v.z.=.*.&.%.$.} { ] ' ( / ^ ~ u r e 9 8 7 6 = * & % ; B P P 5                 ",
"1.1.1.y.b.S.S.M.x.1.1.1.8.v.Z.S.C.v.7.1.1.1.z.N.S.Z.v.#.*.&.%.$.} { ] ' ( / ^ i u r e 9 8 7 6 = * & % P b.M.m.v.>               ",
"1.1.1.8.v.D.K.C.v.-.1.1.i.b.K.K.H.! r.1.1.4.v.A.K.Z.v...&.&.%.$.} { ] ' ( / ^ ~ u r e 9 8 7 6 = = & % W B.K.F.v.3               ",
"1.1.1.2.v.C.K.D.v.o.} 1.h.N.K.K.K.m.T / 1.9.v.H.K.B.! u u $.%.$.| @. .' ( / ^ ~ u r e 9 8 h q = * & % W B.K.F.! 4               ",
"1.1.1.1.h.M.K.K.b.K / 2.v.C.K.F.K.V.l.a *.p.n.K.J.n.L r r [ t.k.v.! v.v.w.) ^ ~ u p c Q v.v.v.! R l B l.B.K.F.! v.v.v.N         ",
"1.1.1.1.i.v.J.K.N.Q i 8.v.S.K.B.K.A.v.x $.x.B.K.F.v.v u d g.v.N.C.D.A.V.b.l.X.~ _ z.v.B.C.S.A.C.M.v.v.V.A.K.J.C.C.V.V.v.<       ",
"1.1.1.1.8.v.S.K.C.l.s e.v.K.F.b.K.H.v.0.` v.Z.K.Z.v.d p l.n.D.K.K.K.K.K.H.m.! _ Q n.G.K.K.K.K.K.K.C.! H.K.K.K.K.K.K.F.v.4       ",
"1.1.1.1.2.v.C.K.D.v.o.d.M.K.C.v.D.K.n.s.o.l.F.K.B.! u F ! H.K.A.m.v.m.A.K.G.v.l.v.D.K.D.B.M.M.C.H.Z.v.m.C.K.H.m.M.M.m.v.<       ",
"1.1.1.1.1.c.M.K.K.b.q.! C.K.B.v.C.K.B.! q.b.K.K.n.L d v.C.K.Z.v.E D Q v.D.K.V.! b.K.K.m.! I U l.b.M.v.! B.K.F.v.U P P N         ",
"1.1.1.1.1.y.v.K.K.N.l.v.A.K.n.! N.K.A.! l.N.K.F.v.v A v.K.K.v.v.T T Y v.V.K.A.v.m.K.K.m.Q M 2 ; V v.V W B.K.F.v.4               ",
"1.1.1.1.1.4.l.S.K.V.v.v.H.F.v.v.b.K.G.v.v.C.K.Z.v.f L m.K.G.M.M.M.M.M.M.V.K.D.! b.J.K.D.N.v.! v.M @ o W B.K.F.v.4               ",
"1.1.1.1.1.2.l.C.K.D.v.m.K.Z.v.q.! D.K.n.v.D.K.B.! u E N.K.K.K.K.K.K.K.K.K.K.G.v.v.V.K.K.K.J.S.V.v.! 1 W B.K.F.v.4               ",
"1.1.1.1.1.1.c.M.K.J.v.V.K.V.l._ v.C.K.N.v.K.K.n.L i E B.K.F.M.M.M.M.M.M.M.M.m.v.R v.N.D.K.K.K.K.F.m.! W B.K.F.v.4               ",
"1.1.1.1.1.1.y.v.H.K.m.A.K.n.s.i j.N.K.A.M.K.F.l.v u L m.K.J.v.Q T T Y J J Y I G = l ! v.b.M.A.J.K.S.v.v.B.K.F.v.4               ",
"1.1.1.1.1.1.7.v.A.K.C.F.J.v.S ~ q.b.K.G.C.K.A.v.f u F b.K.K.m.Q 9 9 8 8 0 Z v.Y ! R w j B W v.N.K.J.v.v.B.K.F.v.4               ",
"1.1.1.1.1.1.2.l.V.K.D.K.A.l.x i o.v.F.K.D.K.N.l.i u O.v.S.K.D.! Q C C G l.v.M.v.m.b.v.V l j Q m.K.J.v.v.M.K.H.v.V n W N         ",
"1.1.1.1.1.1.1.c.m.K.K.K.V.v.a ~ ` l.Z.K.K.K.n.L i u { g.n.K.K.D.M.v.v.n.V.G.A.! B.K.C.n.v.v.b.S.K.S.v.! b.K.K.C.b.b.M.v.<       ",
"1.1.1.1.1.1.1.9.! H.K.K.m.f.i ~ $.k.B.K.K.F.v.v i u &.5.v.M.G.K.K.K.K.K.K.K.A.v.B.K.K.K.K.K.K.K.H.n.W 3 v.Z.K.K.K.K.F.v.4       ",
"1.1.1.1.1.1.1.4.l.C.S.S.v.0.~ i *.a.n.S.D.C.! f i i >.:.+.! b.C.D.G.K.F.A.N.v.v.v.m.Z.S.J.J.S.C.b.! , o V v.V.S.K.S.C.v.<       ",
"1.1.1.1.1.1.1.1.h.v.v.v.v._ ~ ~ <.4.v.v.! v.s.i i ( >.*.*.s T v.! v.v.v.v.Q Z q k R v.v.v.v.v.v.H - o . + N v.! v.v.v.W X       ",
"1.1.1.1.1.1.1.1.1...f X.~ ~ ~ / 1.1.2.X.X._ i i i { >.:.*.} e t z c C c w 7 6 = = = : g m m 2 ; O o o o . . # < b < $           ",
"1.1.1.1.1.1.1.1.1.>.i i ~ ~ i | 1.1.1.] i i i i u &.>.:.*.&.( e 9 9 8 8 7 7 6 6 = = * & & % % O O O o o o o .                   ",
"1.1.1.1.1.1.1.1.1.1.( i ~ ~ ~ >.1.1.1.:.i ~ i i ( >.>.:.*.&.%.{ u 9 8 8 7 7 6 6 7 e 7 = & % O O O o o O o o . .                 ",
"1.1.1.1.1.1.1.1.1.1.1.>.*.*.1.1.1.1.1.1.2.*.*.:.<.>.>.:.*.&.%.$.} ] / i u u i ~ u r e 9 7 6 * & & & % % O o . .                 ",
"1.1.1.1.1.1.1.1.1.1.1.1.1.1.1.1.1.1.1.1.1.1.1.<.<.>.>.:.*.&.%.$.} { ] ' / / ^ ~ u r e 9 8 7 6 = * & % O O o . . .               ",
"1.1.1.1.1.1.1.1.1.1.1.1.1.1.1.1.1.1.1.1.1.1.1.1.<.>.>.*.*.&.%.$.} { ] ' ( / ^ ~ i r e 9 8 7 6 = * & & O o o . .                 ",
"1.1.1.1.1.1.1.1.1.1.1.1.1.1.1.1.1.1.1.1.1.1.1.<.<.>.>.:.*.&.%.$.} { ] ' ( / ^ ~ u r e 9 8 7 6 = * & % O o o . . .               ",
"1.1.1.1.1.1.1.1.1.1.1.1.1.1.1.1.1.1.1.1.1.1.1.<.<.>.>.:.*.&.%.$.} { ] ' ( / ^ ~ u r e 9 8 7 6 = * & & O O o . .                 ",
"1.1.1.1.1.1.1.1.1.1.1.1.1.1.1.1.1.1.1.1.1.1.1.1.<.>.>.*.*.&.%.$.} { ] ' ( / ^ ~ u r e 9 8 7 6 = * & % O O o . .                 ",
"1.1.1.1.1.1.1.1.1.1.1.1.1.1.1.1.1.1.1.1.1.1.1.<.<.>.>.:.*.&.%.$.} { ] ' ( / ^ ~ u r e 9 8 7 6 = * & & O o o . . .               ",
"1.1.1.1.1.1.1.1.1.1.1.1.1.1.1.1.1.1.1.1.1.1.1.<.<.<.>.*.*.&.%.$.} { ] ' ( / ^ i u r e 9 8 7 6 = * & % O O o . .                 ",
"1.1.1.1.1.1.1.1.1.1.1.1.1.1.1.1.1.1.1.1.1.1.1.<.<.>.>.:.*.&.%.$.} { ] ' ( / ^ ~ i r e 9 8 7 6 = * & % O O o . . .               ",
"1.1.1.1.1.1.1.1.1.1.1.1.1.1.1.1.1.1.1.1.1.1.1.<.<.<.>.:.*.&.%.$.} { ] ' ( / ^ ~ u r e 9 8 7 6 = = & % O o o . .                 ",
"1.1.1.1.1.1.1.1.1.1.1.1.1.1.1.1.1.1.1.1.1.1.1.1.<.>.>.*.*.&.%.$.} { ] ' ( / ^ i u r e 9 8 7 6 = * & % O O o . .                 ",
"1.1.1.1.1.1.1.1.1.1.1.1.1.1.1.1.1.1.1.1.1.1.1.<.<.>.>.:.*.&.%.$.} { ] ' ( / ^ ~ u r e 9 8 7 6 = = & % O O o . . .               ",
"1.1.1.1.1.1.1.1.1.1.1.1.1.1.1.1.1.1.1.1.1.1.1.<.<.>.>.:.*.&.%.$.} { ] ' ( / ^ ~ u r e 9 8 7 6 = * & % % o . . .                 ",
"1.1.1.1.1.1.1.1.1.1.1.1.1.1.1.1.1.1.1.1.1.1.1.1.<.>.>.*.*.&.%.$.} { ] ' ( / ^ ~ u r e 9 8 7 6 = * & % O O o . .                 ",
"1.1.1.1.1.1.1.1.1.1.1.1.1.1.1.1.1.1.1.1.1.1.1.<.<.>.>.:.*.&.%.$.} { ] ' ( / ^ ~ i r e 9 8 7 6 = * & % O O o . . .               ",
"1.1.1.1.1.1.1.1.1.1.1.1.1.1.1.1.1.1.1.1.1.1.1.<.<.>.>.:.*.&.%.$.} { ] ' ( / ^ ~ u r e 9 8 7 6 = * & % O O o . .                 ",
"1.1.1.1.1.1.1.1.1.1.1.1.1.1.1.1.1.1.1.1.1.1.1.<.<.<.>.:.*.&.%.$.} { ] ' ( / ^ ~ u r e 9 8 7 6 = * & % O O o . . .               ",
"1.1.1.1.1.1.1.1.1.1.1.1.1.1.1.1.1.1.1.1.1.1.1.<.<.>.>.:.*.&.%.$.} { ] ' ( / ^ ~ u r e 9 8 7 6 = * & % O o o . .                 ",
"1.1.1.1.1.1.1.1.1.1.1.1.1.1.1.1.1.1.1.1.1.1.1.1.<.>.>.:.*.&.%.$.} { ] ' ( / ^ ~ i r e 9 8 7 6 = * & % % O o . .                 "
};
